<svg width="28" height="28" viewBox="0 0 28 28" fill="white" xmlns="http://www.w3.org/2000/svg">
<path d="M13.9998 14.0001C14.4732 14.0001 14.8569 13.6164 14.8569 13.143C14.8569 12.6696 14.4732 12.2859 13.9998 12.2859C13.5264 12.2859 13.1426 12.6696 13.1426 13.143C13.1426 13.6164 13.5264 14.0001 13.9998 14.0001Z" />
<path fill-rule="evenodd" clip-rule="evenodd" d="M9.31562 7.143C9.90843 6.11819 11.0165 5.42871 12.2855 5.42871H15.7141C16.9831 5.42871 18.0912 6.11819 18.684 7.143H22.4755C23.503 7.143 24.3634 7.92159 24.4656 8.94399L25.1427 15.7144L24.2855 15.8463V20.5715C24.2855 21.6761 23.3901 22.5715 22.2855 22.5715H5.71408C4.60951 22.5715 3.71408 21.6761 3.71408 20.5715V15.8463L2.85693 15.7144L3.53398 8.94399C3.63622 7.92159 4.49655 7.143 5.52405 7.143H9.31562ZM17.4284 8.85728H22.7341L23.2751 14.2673L13.9998 15.6943L4.72448 14.2673L5.26548 8.85728H10.5712C10.5712 7.91051 11.3387 7.143 12.2855 7.143H15.7141C16.6609 7.143 17.4284 7.91051 17.4284 8.85728ZM5.42836 20.8573V16.11L13.9998 17.4287L22.5712 16.11V20.8573H5.42836Z" />
</svg>
