<svg width="50" height="40" viewBox="0 0 50 40" fill="none" xmlns="http://www.w3.org/2000/svg">
<g id="&#226;&#128;&#156;&#226;&#128;&#157;">
<path id="Vector" opacity="0.25" d="M40.8955 -7.95939e-07L48.5075 5.88235C46.4179 8.03921 44.7761 10.049 43.5821 11.9118C42.2886 13.8725 41.393 15.7843 40.8955 17.6471C40.2985 19.6078 40 21.6176 40 23.6765L35.3731 19.5588L40.915 19.5588C45.9325 19.5588 50 23.6263 50 28.6438L50 29.5522C50 35.3224 45.3224 40 39.5522 40C33.7821 40 29.1045 35.3224 29.1045 29.5522L29.1045 26.6176C29.1045 23.2843 29.5025 20.098 30.2985 17.0588C30.995 14.1176 32.1891 11.2255 33.8806 8.38235C35.5721 5.63725 37.9104 2.84313 40.8955 -7.95939e-07ZM11.7911 -3.34033e-06L19.403 5.88235C17.3134 8.03921 15.6716 10.049 14.4776 11.9118C13.1841 13.8725 12.2886 15.7843 11.7911 17.6471C11.194 19.6078 10.8955 21.6176 10.8955 23.6765L6.26866 19.5588L11.8106 19.5588C16.828 19.5588 20.8955 23.6263 20.8955 28.6438L20.8955 29.5522C20.8955 35.3224 16.2179 40 10.4478 40C4.67762 40 4.08931e-07 35.3224 9.13372e-07 29.5522L1.16992e-06 26.6176C1.46133e-06 23.2843 0.398012 20.098 1.19403 17.0588C1.89055 14.1176 3.08458 11.2255 4.77612 8.38235C6.46766 5.63725 8.80598 2.84313 11.7911 -3.34033e-06Z" fill="#0E5FE3"/>
</g>
</svg>
