<svg width="65" height="64" viewBox="0 0 65 64" fill="none" xmlns="http://www.w3.org/2000/svg">
<g clip-path="url(#clip0_3791_65565)">
<path d="M32.5 64C50.1731 64 64.5 49.6731 64.5 32H48.5C48.5 40.8365 41.3366 48 32.5 48C23.6634 48 16.5 40.8365 16.5 32C16.5 23.1635 23.6634 16 32.5 16V0C14.8269 0 0.5 14.3269 0.5 32C0.5 49.6731 14.8269 64 32.5 64Z" fill="#0E5FE3"/>
<path d="M53.8333 21.3333C59.7244 21.3333 64.5 16.5577 64.5 10.6667C64.5 4.77564 59.7244 0 53.8333 0C47.9423 0 43.1667 4.77564 43.1667 10.6667C43.1667 16.5577 47.9423 21.3333 53.8333 21.3333Z" fill="#0E5FE3"/>
</g>
<defs>
<clipPath id="clip0_3791_65565">
<rect width="64" height="64" fill="white" transform="translate(0.5)"/>
</clipPath>
</defs>
</svg>
