<svg width="24" height="24" viewBox="0 0 24 24" fill="#0E5FE3" xmlns="http://www.w3.org/2000/svg">
<path fill-rule="evenodd" clip-rule="evenodd" d="M12.7689 2.38686C12.2722 2.20438 11.7278 2.20438 11.2311 2.38686L3 5.4109V5.94165C3 16.6388 9.22918 20.5898 11.1744 21.5548C11.6991 21.8151 12.3009 21.8151 12.8256 21.5548C14.7708 20.5898 21 16.6388 21 5.94165V5.94165C21 5.62281 20.8011 5.33782 20.5018 5.22787L12.7689 2.38686ZM11.7437 3.81112C11.9093 3.75029 12.0907 3.75029 12.2563 3.81112L19.4945 6.47039C19.2961 16.004 13.7517 19.4071 12.1645 20.1944C12.0567 20.2479 11.9433 20.2479 11.8355 20.1944C10.2483 19.4071 4.70393 16.004 4.50547 6.47039L11.7437 3.81112Z" />
<path d="M16.5 9.08333C16.5 8.6231 16.1362 8.25 15.6875 8.25C15.4613 8.25 15.2566 8.34484 15.1093 8.49786L10.7501 12.9881L8.88709 11.0774C8.74005 10.9266 8.53687 10.8333 8.3125 10.8333C7.86377 10.8333 7.5 11.2064 7.5 11.6667C7.5 11.9007 7.5941 12.1123 7.74561 12.2637L10.1679 14.7481C10.3155 14.9035 10.5218 15 10.75 15C10.9744 15 11.1775 14.9067 11.3246 14.7559L16.2621 9.67255C16.4091 9.52175 16.5 9.31343 16.5 9.08333Z" />
</svg>
