<svg width="30" height="30" viewBox="0 0 30 30" fill="none" xmlns="http://www.w3.org/2000/svg">
<g id="Icon">
<path d="M27.2666 28.3332C27.64 28.3332 27.8267 28.3332 27.9693 28.2605C28.0947 28.1966 28.1967 28.0946 28.2606 27.9692C28.3333 27.8266 28.3333 27.6399 28.3333 27.2665V13.3998C28.3333 13.0265 28.3333 12.8398 28.2606 12.6972C28.1967 12.5717 28.0947 12.4698 27.9693 12.4058C27.8267 12.3332 27.64 12.3332 27.2666 12.3332L24.0666 12.3332C23.6933 12.3332 23.5066 12.3332 23.364 12.4058C23.2385 12.4698 23.1365 12.5717 23.0726 12.6972C23 12.8398 23 13.0265 23 13.3998V16.5998C23 16.9732 23 17.1599 22.9273 17.3025C22.8634 17.4279 22.7614 17.5299 22.636 17.5938C22.4933 17.6665 22.3067 17.6665 21.9333 17.6665H18.7333C18.3599 17.6665 18.1732 17.6665 18.0306 17.7392C17.9052 17.8031 17.8032 17.9051 17.7393 18.0305C17.6666 18.1731 17.6666 18.3598 17.6666 18.7332V21.9332C17.6666 22.3065 17.6666 22.4932 17.594 22.6358C17.53 22.7613 17.4281 22.8633 17.3026 22.9272C17.16 22.9998 16.9733 22.9998 16.6 22.9998H13.4C13.0266 22.9998 12.8399 22.9998 12.6973 23.0725C12.5719 23.1364 12.4699 23.2384 12.406 23.3638C12.3333 23.5065 12.3333 23.6931 12.3333 24.0665V27.2665C12.3333 27.6399 12.3333 27.8266 12.406 27.9692C12.4699 28.0946 12.5719 28.1966 12.6973 28.2605C12.8399 28.3332 13.0266 28.3332 13.4 28.3332L27.2666 28.3332Z" stroke="#0E5FE3" stroke-width="2" stroke-linecap="round" stroke-linejoin="round"/>
<path d="M12.3333 8.0665C12.3333 7.69314 12.3333 7.50645 12.406 7.36384C12.4699 7.2384 12.5719 7.13642 12.6973 7.0725C12.8399 6.99984 13.0266 6.99984 13.4 6.99984H16.6C16.9733 6.99984 17.16 6.99984 17.3026 7.0725C17.4281 7.13642 17.53 7.2384 17.594 7.36384C17.6666 7.50645 17.6666 7.69314 17.6666 8.0665V11.2665C17.6666 11.6399 17.6666 11.8266 17.594 11.9692C17.53 12.0946 17.4281 12.1966 17.3026 12.2605C17.16 12.3332 16.9733 12.3332 16.6 12.3332H13.4C13.0266 12.3332 12.8399 12.3332 12.6973 12.2605C12.5719 12.1966 12.4699 12.0946 12.406 11.9692C12.3333 11.8266 12.3333 11.6399 12.3333 11.2665V8.0665Z" stroke="#0E5FE3" stroke-width="2" stroke-linecap="round" stroke-linejoin="round"/>
<path d="M2.99996 16.0665C2.99996 15.6931 2.99996 15.5065 3.07262 15.3638C3.13654 15.2384 3.23852 15.1364 3.36397 15.0725C3.50657 14.9998 3.69326 14.9998 4.06663 14.9998H7.26663C7.63999 14.9998 7.82668 14.9998 7.96929 15.0725C8.09473 15.1364 8.19671 15.2384 8.26063 15.3638C8.33329 15.5065 8.33329 15.6931 8.33329 16.0665V19.2665C8.33329 19.6399 8.33329 19.8266 8.26063 19.9692C8.19671 20.0946 8.09473 20.1966 7.96929 20.2605C7.82668 20.3332 7.63999 20.3332 7.26663 20.3332H4.06663C3.69326 20.3332 3.50657 20.3332 3.36397 20.2605C3.23852 20.1966 3.13654 20.0946 3.07262 19.9692C2.99996 19.8266 2.99996 19.6399 2.99996 19.2665V16.0665Z" stroke="#0E5FE3" stroke-width="2" stroke-linecap="round" stroke-linejoin="round"/>
<path d="M1.66663 2.73317C1.66663 2.3598 1.66663 2.17312 1.73929 2.03051C1.8032 1.90507 1.90519 1.80308 2.03063 1.73917C2.17324 1.6665 2.35992 1.6665 2.73329 1.6665H5.93329C6.30666 1.6665 6.49335 1.6665 6.63595 1.73917C6.76139 1.80308 6.86338 1.90507 6.9273 2.03051C6.99996 2.17312 6.99996 2.3598 6.99996 2.73317V5.93317C6.99996 6.30654 6.99996 6.49322 6.9273 6.63583C6.86338 6.76127 6.76139 6.86326 6.63595 6.92718C6.49335 6.99984 6.30666 6.99984 5.93329 6.99984H2.73329C2.35992 6.99984 2.17324 6.99984 2.03063 6.92718C1.90519 6.86326 1.8032 6.76127 1.73929 6.63583C1.66663 6.49322 1.66663 6.30654 1.66663 5.93317V2.73317Z" stroke="#0E5FE3" stroke-width="2" stroke-linecap="round" stroke-linejoin="round"/>
</g>
</svg>
