<svg width="32" height="32" viewBox="0 0 32 32" fill="none" xmlns="http://www.w3.org/2000/svg">
<path d="M15.1547 5.87398C14.6593 6.03694 14.1866 6.25013 13.7428 6.50753C13.1933 5.88941 12.3921 5.5 11.5 5.5C9.84315 5.5 8.5 6.84315 8.5 8.5C8.5 9.69686 9.20088 10.73 10.2146 11.2114C10.0937 11.7054 10.0218 12.2185 10.0042 12.7454C8.25424 12.1289 7 10.4609 7 8.5C7 6.01472 9.01472 4 11.5 4C13.0052 4 14.3378 4.73901 15.1547 5.87398Z" fill="#0E5FE3"/>
<path d="M10.171 14.6C7.52037 15.0014 5.02015 16.6149 4.03984 19.5094C3.90697 19.9017 4.11729 20.3275 4.50962 20.4604C4.90194 20.5932 5.3277 20.3829 5.46057 19.9906C6.25227 17.653 8.34092 16.3133 10.6455 16.0487C10.4405 15.5884 10.2805 15.1036 10.171 14.6Z" fill="#0E5FE3"/>
<path fill-rule="evenodd" clip-rule="evenodd" d="M17.5 19C20.8137 19 23.5 16.3137 23.5 13C23.5 9.68629 20.8137 7 17.5 7C14.1863 7 11.5 9.68629 11.5 13C11.5 16.3137 14.1863 19 17.5 19ZM17.5 17.5C19.9853 17.5 22 15.4853 22 13C22 10.5147 19.9853 8.5 17.5 8.5C15.0147 8.5 13 10.5147 13 13C13 15.4853 15.0147 17.5 17.5 17.5Z" fill="#0E5FE3"/>
<path d="M17.5 22.0789C13.5684 22.0789 9.81645 23.9534 8.5059 27.4884C8.35461 27.8964 7.90607 28.1028 7.50405 27.9492C7.10202 27.7956 6.89876 27.3404 7.05005 26.9323C8.6663 22.5727 13.1729 20.5 17.5 20.5C21.827 20.5 26.3337 22.5727 27.95 26.9323C28.1012 27.3404 27.898 27.7956 27.496 27.9492C27.0939 28.1028 26.6454 27.8964 26.4941 27.4884C25.1836 23.9534 21.4316 22.0789 17.5 22.0789Z" fill="#0E5FE3"/>
</svg>
