<svg xmlns="http://www.w3.org/2000/svg" width="16" height="16" viewBox="0 0 16 16" fill="none">
  <path d="M7.64644 3.35355C7.55596 3.26306 7.5 3.13807 7.5 3C7.5 2.72386 7.72386 2.5 8 2.5C8.14045 2.5 8.26737 2.55791 8.35819 2.65115L13.3489 7.64181C13.4421 7.73263 13.5 7.85955 13.5 8C13.5 8.14045 13.4421 8.26737 13.3489 8.35819L8.35819 13.3489C8.26737 13.4421 8.14045 13.5 8 13.5C7.72386 13.5 7.5 13.2761 7.5 13C7.5 12.8619 7.55596 12.7369 7.64644 12.6465L11.7928 8.5H3C2.72386 8.5 2.5 8.27614 2.5 8C2.5 7.72386 2.72386 7.5 3 7.5H11.7928L7.64644 3.35355Z" fill="#191919"/>
</svg>