<svg width="74" height="64" viewBox="0 0 74 64" fill="#0E5FE3" xmlns="http://www.w3.org/2000/svg">
<g clip-path="url(#clip0_2691_53362)">
<path d="M0 30.7477C4.48033 31.8979 7.79296 34.4807 10.0994 38.8726C7.59834 38.8112 5.8178 37.7715 4.32298 36.3389C2.77847 34.849 1.43271 33.1586 0 31.5582C0 31.288 0 31.0138 0 30.7437V30.7477Z" />
<path d="M51.1264 46.2686C49.7517 49.7313 49.6109 49.8541 40.878 55.6009C45.702 55.4208 50.2569 55.1302 53.8842 58.4906C50.82 60.2629 43.1016 59.4975 40.5053 57.2217C38.9525 55.8587 39.3625 54.4057 40.3273 53.059C42.8946 49.4735 46.6006 47.607 51.1264 46.2686Z" />
<path d="M20.2441 58.8223C24.2483 55.118 28.8031 55.4168 33.3704 55.4045C29.2628 53.3375 25.3125 51.2336 23.4822 46.7271C27.1386 46.5715 33.7638 51.0535 34.8404 54.328C35.445 56.1699 34.4222 57.4674 32.9646 57.8563C30.1034 58.6217 27.1261 59.0269 24.1737 59.3666C23.006 59.5017 21.768 59.0556 20.2441 58.8223Z" />
<path d="M57.7476 47.2507C60.3687 42.6787 65.5033 39.4165 69.8842 39.4165C68.1161 43.4605 62.203 47.3244 57.7476 47.2507Z" />
<path d="M16.6293 47.378C11.0517 47.0096 7.61481 43.5837 4.38086 39.6338C8.26492 38.9012 14.9523 43.1416 16.6293 47.378Z" />
<path d="M51.6147 50.7263C52.6003 45.5771 54.6706 41.263 59.4988 38.5083C59.0226 44.1282 55.4367 49.7275 51.6147 50.7263Z" />
<path d="M61.1761 54.8599C55.9629 56.1861 51.1885 56.9801 46.4805 54.0658C49.8097 51.7287 57.5074 51.9333 61.1761 54.8599Z" />
<path d="M28.1533 53.7019C24.7537 56.432 18.0415 56.8004 13.5073 54.6024C18.2527 51.7699 23.0229 52.0073 28.1533 53.7019Z" />
<path d="M22.9235 51.1314C17.5529 48.2867 16.083 43.6164 14.6958 38.3281C19.789 41.2997 21.9256 45.5525 22.9235 51.1314Z" />
<path d="M53.9917 50.4723C58.4306 47.6521 63.0559 46.4938 68.2401 47.9141C65.4493 51.0985 57.5569 52.5434 53.9917 50.4723Z" />
<path d="M6.05811 47.9834C11.4577 46.4812 16.0747 47.6682 20.5094 50.4761C17.0063 52.5022 10.3894 51.393 6.05811 47.9834Z" />
<path d="M12.9854 41.5657C9.7266 37.1779 10.1241 32.6673 11.1138 27.9766C13.9626 30.3792 14.8819 36.7031 12.9854 41.5657Z" />
<path d="M63.2382 27.8862C64.8986 32.8594 64.1492 38.4792 61.5322 41.2339C59.5363 37.8243 60.3065 31.3531 63.2382 27.8862Z" />
<path d="M8.33548 7.21631C10.5591 11.4772 10.1781 15.4967 8.60049 19.5734C5.96695 18.0999 6.35204 10.9533 8.33548 7.21631Z" />
<path d="M72.1698 13.835C71.9462 18.1041 71.3375 22.2259 67.1802 25.3939C67.2464 20.519 68.4887 16.6879 72.1698 13.835Z" />
<path d="M63.3208 17.3056C59.3498 16.3437 55.3291 12.2465 54.915 8.73047C59.2049 10.0607 63.1262 14.0556 63.3208 17.3056Z" />
<path d="M7.13447 25.2627C3.15104 22.2297 2.56719 18.1202 2.06201 13.8716C5.12205 15.034 7.6645 20.6334 7.13447 25.2627Z" />
<path d="M65.9876 19.819C64.3189 15.5213 63.9669 11.4936 66.0332 7.40869C68.3603 10.4253 68.3976 16.5404 65.9876 19.819Z" />
<path d="M61.1594 0.961914C63.3374 4.87494 64.737 8.71019 63.1925 13.1676C60.4182 10.593 59.4202 4.69074 61.1594 0.961914Z" />
<path d="M61.4243 18.1245C65.0268 21.3171 66.9688 26.5891 65.7058 29.7531C62.6996 26.4581 60.8321 22.8971 61.4243 18.1245Z" />
<path d="M8.67496 29.4502C7.80953 24.8618 10.0373 21.4604 13.0021 17.8462C13.6977 22.8193 11.8551 26.3844 8.67496 29.4502Z" />
<path d="M11.3581 13.237C9.73491 8.75508 11.18 4.92801 13.267 1.03955C15.1262 4.27721 14.207 10.1549 11.3581 13.237Z" />
<path d="M59.5198 10.0609C55.6523 7.65819 52.8656 4.66203 52.0747 0.0327148C56.2859 1.81731 59.7683 6.4671 59.5198 10.0609Z" />
<path d="M8.5011 33.5226C3.98351 30.8662 2.74541 26.9614 1.71436 22.2993C6.08288 25.0499 7.74748 28.7132 8.5011 33.5226Z" />
<path d="M19.5983 8.72266C18.3933 13.1596 15.3167 15.7546 10.8198 17.6743C12.1035 12.6725 15.7391 10.5809 19.5983 8.72266Z" />
<path d="M22.3852 0C21.6688 4.66206 18.8655 7.61729 15.0477 9.99539C14.6585 6.59401 17.9711 2.09977 22.3852 0Z" />
<path d="M72.4267 22.7783C71.7683 27.027 70.4681 30.8868 65.9878 33.5473C66.7041 28.7174 68.4267 25.0991 72.4267 22.7783Z" />
<path d="M64.4224 38.7536C66.6294 34.8733 69.4369 32.0163 74 31.0381C73.1097 34.7301 68.1946 38.7168 64.4224 38.7536Z" />
<path d="M29.3501 63.9999C29.4246 62.8757 31.3749 60.9546 35.201 58.2368C34.7621 61.0038 32.377 63.4023 29.3501 63.9999Z" />
<path d="M45.5156 63.9343C42.4183 63.6396 39.9421 61.2738 39.1719 57.9297C41.2257 60.1686 44.4265 60.7253 45.5156 63.9343Z" />
</g>
<defs>
<clipPath id="clip0_2691_53362">
<rect width="74" height="64" fill="white"/>
</clipPath>
</defs>
</svg>
