<svg width="112" height="112" viewBox="0 0 112 112" fill="none" xmlns="http://www.w3.org/2000/svg">
<circle cx="56" cy="56" r="56" fill="#EEEFF1"/>
<path fill-rule="evenodd" clip-rule="evenodd" d="M68 47C68 53.6274 62.6274 59 56 59C49.3726 59 44 53.6274 44 47C44 40.3726 49.3726 35 56 35C62.6274 35 68 40.3726 68 47ZM65 47C65 51.9706 60.9706 56 56 56C51.0294 56 47 51.9706 47 47C47 42.0294 51.0294 38 56 38C60.9706 38 65 42.0294 65 47Z" fill="#B0B7BD"/>
<path d="M38.0118 75.9768C40.6329 68.9068 48.1368 65.1578 56 65.1578C63.8632 65.1578 71.3671 68.9068 73.9882 75.9768C74.2908 76.7929 75.1879 77.2055 75.9919 76.8984C76.796 76.5913 77.2025 75.6807 76.8999 74.8646C73.6674 66.1455 64.6541 62 56 62C47.3459 62 38.3326 66.1455 35.1001 74.8646C34.7975 75.6807 35.204 76.5913 36.0081 76.8984C36.8121 77.2055 37.7092 76.7929 38.0118 75.9768Z" fill="#B0B7BD"/>
</svg>

