<svg xmlns="http://www.w3.org/2000/svg" width="480" height="480" viewBox="0 0 480 480" fill="none">
  <g opacity="0.15">
    <path d="M240 480C372.548 480 480 372.548 480 240H360C360 306.274 306.274 360 240 360C173.726 360 120 306.274 120 240C120 173.726 173.726 120 240 120V0C107.452 0 0 107.452 0 240C0 372.548 107.452 480 240 480Z" fill="url(#paint0_linear_91_8)"/>
    <path d="M400 160C444.183 160 480 124.183 480 79.9999C480 35.8173 444.183 0 400 0C355.817 0 320 35.8173 320 79.9999C320 124.183 355.817 160 400 160Z" fill="url(#paint1_linear_91_8)"/>
  </g>
  <defs>
    <linearGradient id="paint0_linear_91_8" x1="-4.64078e-06" y1="480" x2="622.875" y2="-142.875" gradientUnits="userSpaceOnUse">
      <stop stop-color="#ADB5B9"/>
      <stop offset="1" stop-color="#F5F5F3"/>
    </linearGradient>
    <linearGradient id="paint1_linear_91_8" x1="-4.64078e-06" y1="480" x2="622.875" y2="-142.875" gradientUnits="userSpaceOnUse">
      <stop stop-color="#ADB5B9"/>
      <stop offset="1" stop-color="#F5F5F3"/>
    </linearGradient>
  </defs>
</svg>