<svg width="24" height="24" viewBox="0 0 24 24" fill="none" xmlns="http://www.w3.org/2000/svg">
<path d="M12 5.25C11.5858 5.25 11.25 4.91421 11.25 4.5V1.5C11.25 1.08579 11.5858 0.75 12 0.75C12.4142 0.75 12.75 1.08579 12.75 1.5V4.5C12.75 4.91421 12.4142 5.25 12 5.25Z" fill="#999999"/>
<path d="M24 12.75C24 12.3358 23.6642 12 23.25 12H20.25C19.8358 12 19.5 12.3358 19.5 12.75C19.5 13.1642 19.8358 13.5 20.25 13.5H23.25C23.6642 13.5 24 13.1642 24 12.75Z" fill="#999999"/>
<path d="M3.75 12C4.16421 12 4.5 12.3358 4.5 12.75C4.5 13.1642 4.16421 13.5 3.75 13.5H0.75C0.335786 13.5 0 13.1642 0 12.75C0 12.3358 0.335786 12 0.75 12H3.75Z" fill="#999999"/>
<path d="M6.75753 6.74996C6.76169 7.16415 6.42927 7.49992 6.01506 7.49992C5.80472 7.49992 5.61374 7.41334 5.47614 7.27388L5.46973 7.28029L3.21973 5.0303L3.22612 5.0239C3.09277 4.88872 3.00957 4.70386 3.00753 4.5C3.00337 4.08579 3.3358 3.75 3.75004 3.75C3.97597 3.75 4.17957 3.84989 4.31867 4.00791L6.50017 6.18942C6.65599 6.32679 6.75529 6.52702 6.75753 6.74996Z" fill="#999999"/>
<path d="M17.2461 7.49992C16.834 7.49992 16.5032 7.16415 16.5073 6.74996C16.5093 6.5491 16.5897 6.36667 16.719 6.23205L16.7057 6.21863L18.8857 4.05342C19.0235 3.86931 19.2427 3.75 19.4883 3.75C19.9005 3.75 20.2313 4.08579 20.2271 4.5C20.2251 4.70071 20.1449 4.883 20.0157 5.0176L20.0295 5.03146L17.8459 7.2003C17.7079 7.38225 17.4901 7.49992 17.2461 7.49992Z" fill="#999999"/>
<path fill-rule="evenodd" clip-rule="evenodd" d="M7.19034 16.5762C6.61597 15.5487 6 14.2544 6 12.75C6 9.43629 8.68629 6.75 12 6.75C15.3137 6.75 18 9.43629 18 12.75C18 14.2544 17.384 15.5487 16.8097 16.5762C16.6829 16.8029 16.5643 17.0064 16.4539 17.196C16.3018 17.457 16.1648 17.6921 16.0436 17.9243C15.8363 18.3213 15.75 18.5788 15.75 18.75L15.3047 21.9564C15.2017 22.6979 14.5676 23.25 13.8189 23.25H10.1811C9.43237 23.25 8.79832 22.6979 8.69533 21.9564L8.25 18.75C8.25 18.5788 8.16374 18.3213 7.95641 17.9243C7.83508 17.6919 7.69832 17.4572 7.5461 17.196C7.43566 17.0064 7.31707 16.8029 7.19034 16.5762ZM16.5 12.75C16.5 10.2647 14.4853 8.25 12 8.25C9.51472 8.25 7.5 10.2647 7.5 12.75C7.5 13.9956 8.00903 15.1013 8.55966 16.0863C8.66325 16.2716 8.7741 16.4623 8.88342 16.6504C9.04961 16.9363 9.21227 17.2162 9.34047 17.4617C9.55501 17.8725 9.75 18.3212 9.75 18.75H14.25C14.25 18.3212 14.445 17.8725 14.6595 17.4617C14.7877 17.2162 14.9504 16.9364 15.1166 16.6504C15.2259 16.4624 15.3368 16.2716 15.4403 16.0863C15.991 15.1013 16.5 13.9956 16.5 12.75ZM10.1811 21.75L9.97273 20.25H14.0273L13.8189 21.75H10.1811Z" fill="#999999"/>
</svg>
