<svg xmlns="http://www.w3.org/2000/svg" width="24" height="24" viewBox="0 0 24 24" fill="none">
  <path
    d="M15.6875 8.25C16.1362 8.25 16.5 8.6231 16.5 9.08333C16.5 9.31343 16.4091 9.52175 16.2621 9.67255L11.3246 14.7559C11.1775 14.9067 10.9744 15 10.75 15C10.5218 15 10.3155 14.9035 10.1679 14.7481L7.74562 12.2637C7.5941 12.1123 7.5 11.9007 7.5 11.6667C7.5 11.2064 7.86377 10.8333 8.3125 10.8333C8.53687 10.8333 8.74005 10.9266 8.88709 11.0774L10.7501 12.9881L15.1093 8.49786C15.2566 8.34484 15.4613 8.25 15.6875 8.25Z"
    fill="#191919" />
  <path fill-rule="evenodd" clip-rule="evenodd"
    d="M11.2311 2.38686C11.7278 2.20438 12.2722 2.20438 12.7689 2.38686L20.5018 5.22787C20.8011 5.33782 21 5.62281 21 5.94165C21 16.6388 14.7708 20.5898 12.8256 21.5548C12.3009 21.8151 11.6991 21.8151 11.1744 21.5548C9.22918 20.5898 3 16.6388 3 5.94165V5.4109L11.2311 2.38686ZM12.2563 3.81112C12.0907 3.75029 11.9093 3.75029 11.7437 3.81112L4.50547 6.47039C4.70393 16.004 10.2483 19.4071 11.8355 20.1944C11.9433 20.2479 12.0567 20.2479 12.1645 20.1944C13.7517 19.4071 19.2961 16.004 19.4945 6.47039L12.2563 3.81112Z"
    fill="#191919" />
</svg>