<svg width="50" height="40" viewBox="0 0 50 40" fill="none" xmlns="http://www.w3.org/2000/svg">
<path id="Vector" opacity="0.25" d="M0 33.617C1.88518 33.0496 3.66324 32.2695 5.33419 31.2766C7.00514 30.2837 8.44045 29.1489 9.6401 27.8723C10.8826 26.5957 11.8466 25.2482 12.5321 23.8298C13.2605 22.3641 13.6247 20.8983 13.6247 19.4326C13.6247 18.8652 13.6033 18.4161 13.5604 18.0851C13.5176 17.7069 13.4105 17.5177 13.2391 17.5177C12.7678 17.5177 12.3179 17.6359 11.8895 17.8723C11.5039 18.0615 11.0968 18.2979 10.6684 18.5816C10.2399 18.8652 9.76864 19.1253 9.2545 19.3617C8.78321 19.5508 8.24764 19.6454 7.64781 19.6454C6.66238 19.6454 5.69837 19.409 4.75578 18.9362C3.85604 18.4161 3.04199 17.7305 2.31362 16.8794C1.62811 16.0284 1.07112 15.0355 0.642673 13.9007C0.214224 12.7187 0 11.4421 0 10.0709C0 8.65248 0.257069 7.32861 0.771208 6.09929C1.32819 4.86998 2.05656 3.80615 2.9563 2.9078C3.89889 2.00946 4.99143 1.30024 6.23393 0.780142C7.47644 0.260047 8.80463 0 10.2185 0C11.9323 0 13.539 0.425532 15.0386 1.2766C16.5381 2.12766 17.8449 3.28605 18.9589 4.75177C20.0728 6.17021 20.9512 7.8487 21.5938 9.78723C22.2793 11.7258 22.6221 13.7825 22.6221 15.9574C22.6221 19.3144 22.0009 22.4113 20.7584 25.2482C19.5587 28.0851 17.9306 30.5674 15.874 32.695C13.8175 34.7754 11.4182 36.4775 8.67609 37.8014C5.93402 39.078 3.04199 39.8109 0 40V33.617ZM27.4422 33.617C29.3273 33.0496 31.084 32.2695 32.7121 31.2766C34.383 30.2837 35.8183 29.1489 37.018 27.8723C38.2605 26.5957 39.2245 25.2482 39.91 23.8298C40.6384 22.3641 41.0026 20.8983 41.0026 19.4326C41.0026 18.8652 40.9597 18.4161 40.874 18.0851C40.7883 17.7069 40.7027 17.5177 40.617 17.5177C40.1885 17.5177 39.7601 17.6359 39.3316 17.8723C38.946 18.0615 38.539 18.2979 38.1105 18.5816C37.6821 18.8652 37.2108 19.1253 36.6967 19.3617C36.2254 19.5508 35.6898 19.6454 35.09 19.6454C34.0617 19.6454 33.0763 19.409 32.1337 18.9362C31.1911 18.4161 30.377 17.7305 29.6915 16.8794C29.006 16.0284 28.449 15.0355 28.0206 13.9007C27.635 12.7187 27.4422 11.4421 27.4422 10.0709C27.4422 8.65248 27.6992 7.32861 28.2134 6.09929C28.7704 4.86998 29.4987 3.80615 30.3985 2.9078C31.2982 2.00946 32.3693 1.30024 33.6118 0.780142C34.8543 0.260047 36.1825 0 37.5964 0C39.3102 0 40.9169 0.425532 42.4165 1.2766C43.916 2.12766 45.2228 3.28605 46.3368 4.75177C47.4936 6.17021 48.3933 7.8487 49.036 9.78723C49.6787 11.7258 50 13.7825 50 15.9574C50 19.3144 49.3787 22.4113 48.1362 25.2482C46.9366 28.0851 45.3085 30.5674 43.2519 32.695C41.1954 34.7754 38.7961 36.4775 36.054 37.8014C33.3548 39.078 30.4841 39.8109 27.4422 40V33.617Z" fill="#0E5FE3"/>
</svg>
