<svg width="32" height="32" viewBox="0 0 32 32" fill="none" xmlns="http://www.w3.org/2000/svg">
<path d="M18.6667 3.02539V8.53278C18.6667 9.27951 18.6667 9.65288 18.812 9.9381C18.9399 10.189 19.1438 10.393 19.3947 10.5208C19.6799 10.6661 20.0533 10.6661 20.8 10.6661H26.3074M18.6667 22.666H10.6667M21.3334 17.3327H10.6667M26.6667 13.317V22.9327C26.6667 25.1729 26.6667 26.293 26.2307 27.1486C25.8472 27.9013 25.2353 28.5132 24.4827 28.8967C23.627 29.3327 22.5069 29.3327 20.2667 29.3327H11.7334C9.49316 29.3327 8.37306 29.3327 7.51741 28.8967C6.76476 28.5132 6.15284 27.9013 5.76935 27.1486C5.33337 26.293 5.33337 25.1729 5.33337 22.9327V9.06602C5.33337 6.82581 5.33337 5.7057 5.76935 4.85005C6.15284 4.09741 6.76476 3.48548 7.51741 3.10199C8.37306 2.66602 9.49316 2.66602 11.7334 2.66602H16.0157C16.9941 2.66602 17.4833 2.66602 17.9436 2.77654C18.3518 2.87452 18.742 3.03614 19.0998 3.25545C19.5035 3.50282 19.8494 3.84873 20.5412 4.54053L24.7922 8.7915C25.484 9.48331 25.8299 9.82921 26.0773 10.2329C26.2966 10.5908 26.4582 10.9809 26.5562 11.3891C26.6667 11.8494 26.6667 12.3386 26.6667 13.317Z" stroke="#0E5FE3" stroke-width="2" stroke-linecap="round" stroke-linejoin="round"/>
</svg>
