<svg width="64" height="64" viewBox="0 0 64 64" fill="none" xmlns="http://www.w3.org/2000/svg">
<path d="M32 14C30.8954 14 30 13.1046 30 12V4C30 2.89543 30.8954 2 32 2C33.1046 2 34 2.89543 34 4V12C34 13.1046 33.1046 14 32 14Z" fill="#0E5FE3"/>
<path d="M64 34C64 32.8954 63.1046 32 62 32H54C52.8954 32 52 32.8954 52 34C52 35.1046 52.8954 36 54 36H62C63.1046 36 64 35.1046 64 34Z" fill="#0E5FE3"/>
<path d="M10 32C11.1046 32 12 32.8954 12 34C12 35.1046 11.1046 36 10 36H2C0.89543 36 0 35.1046 0 34C0 32.8954 0.89543 32 2 32H10Z" fill="#0E5FE3"/>
<path d="M18.0201 17.9999C18.0312 19.1044 17.1447 19.9998 16.0401 19.9998C15.4792 19.9998 14.97 19.7689 14.6031 19.397L14.5859 19.4141L8.58594 13.4141L8.60298 13.3971C8.24738 13.0366 8.02553 12.5436 8.02007 12C8.00899 10.8954 8.89548 10 10.0001 10C10.6026 10 11.1455 10.2664 11.5164 10.6878L17.3338 16.5051C17.7493 16.8714 18.0141 17.4054 18.0201 17.9999Z" fill="#0E5FE3"/>
<path d="M45.9896 19.9998C44.8906 19.9998 44.0085 19.1044 44.0196 17.9999C44.0249 17.4643 44.2393 16.9778 44.5841 16.6188L44.5485 16.583L50.3618 10.8091C50.7294 10.3182 51.3138 10 51.9689 10C53.068 10 53.95 10.8954 53.939 12C53.9337 12.5352 53.7196 13.0213 53.3753 13.3803L53.4121 13.4172L47.589 19.2008C47.2211 19.686 46.6402 19.9998 45.9896 19.9998Z" fill="#0E5FE3"/>
<path fill-rule="evenodd" clip-rule="evenodd" d="M19.1743 44.2032C17.6426 41.4632 16 38.0118 16 34C16 25.1634 23.1634 18 32 18C40.8366 18 48 25.1634 48 34C48 38.0118 46.3574 41.4632 44.8257 44.2032C44.4878 44.8077 44.1716 45.3505 43.8771 45.8559C43.4714 46.5521 43.1063 47.1789 42.7829 47.7981C42.23 48.8567 42 49.5435 42 50L40.8125 58.5503C40.5378 60.5278 38.847 62 36.8505 62H27.1495C25.153 62 23.4622 60.5278 23.1875 58.5503L22 50C22 49.5435 21.77 48.8567 21.2171 47.7981C20.8935 47.1785 20.5289 46.5526 20.1229 45.8559C19.8284 45.3505 19.5122 44.8077 19.1743 44.2032ZM44 34C44 27.3726 38.6274 22 32 22C25.3726 22 20 27.3726 20 34C20 37.3216 21.3574 40.2701 22.8257 42.8968C23.102 43.391 23.3976 43.8996 23.6891 44.4011C24.1323 45.1636 24.5661 45.9099 24.9079 46.5644C25.48 47.66 26 48.8565 26 50H38C38 48.8565 38.52 47.66 39.0921 46.5644C39.434 45.9098 39.8677 45.1636 40.3109 44.4011C40.6024 43.8996 40.898 43.391 41.1743 42.8968C42.6426 40.2701 44 37.3216 44 34ZM27.1495 58L26.594 54H37.406L36.8505 58H27.1495Z" fill="#0E5FE3"/>
</svg>
