<svg width="32" height="32" viewBox="0 0 32 32" fill="none" xmlns="http://www.w3.org/2000/svg">
<path d="M28 16C28 22.6274 22.6274 28 16 28C14.4038 28 12.8804 27.6884 11.4873 27.1226C11.2207 27.0143 11.0874 26.9602 10.9796 26.936C10.8742 26.9124 10.7962 26.9037 10.6882 26.9037C10.5777 26.9037 10.4574 26.9238 10.2169 26.9639L5.47301 27.7545C4.97624 27.8373 4.72786 27.8787 4.54825 27.8017C4.39104 27.7342 4.26577 27.609 4.19835 27.4518C4.12131 27.2721 4.16271 27.0238 4.2455 26.527L5.03614 21.7831C5.07624 21.5426 5.09629 21.4223 5.09628 21.3118C5.09626 21.2038 5.08762 21.1258 5.06399 21.0204C5.03984 20.9126 4.9857 20.7793 4.87742 20.5127C4.31165 19.1196 4 17.5962 4 16C4 9.37258 9.37258 4 16 4C22.6274 4 28 9.37258 28 16Z" stroke="#0E5FE3" stroke-width="2" stroke-linecap="round" stroke-linejoin="round"/>
</svg>
