<svg width="24" height="24" viewBox="0 0 24 24" fill="none" xmlns="http://www.w3.org/2000/svg">
<path fill-rule="evenodd" clip-rule="evenodd" d="M14.5686 16.3792C13.5886 16.9336 12.4563 17.25 11.25 17.25C7.52208 17.25 4.5 14.2279 4.5 10.5C4.5 6.77208 7.52208 3.75 11.25 3.75C14.9779 3.75 18 6.77208 18 10.5C18 12.4757 17.1512 14.2532 15.7983 15.4876L19.2804 18.9696C19.4161 19.1054 19.5 19.2929 19.5 19.5C19.5 19.9142 19.1642 20.25 18.75 20.25C18.5393 20.25 18.349 20.1631 18.2127 20.0233L14.5686 16.3792ZM16.5 10.5C16.5 13.3995 14.1495 15.75 11.25 15.75C8.35051 15.75 6 13.3995 6 10.5C6 7.60051 8.35051 5.25 11.25 5.25C14.1495 5.25 16.5 7.60051 16.5 10.5Z" fill="#0E5FE3"/>
</svg>
