<svg width="25" height="24" viewBox="0 0 25 24" fill="#fff" xmlns="http://www.w3.org/2000/svg">
<path fill-rule="evenodd" clip-rule="evenodd" d="M18.75 7.5C18.75 10.8137 16.0637 13.5 12.75 13.5C9.43629 13.5 6.75 10.8137 6.75 7.5C6.75 4.18629 9.43629 1.5 12.75 1.5C16.0637 1.5 18.75 4.18629 18.75 7.5ZM17.25 7.5C17.25 9.98528 15.2353 12 12.75 12C10.2647 12 8.25 9.98528 8.25 7.5C8.25 5.01472 10.2647 3 12.75 3C15.2353 3 17.25 5.01472 17.25 7.5Z"/>
<path d="M3.7559 21.9884C5.06645 18.4534 8.81842 16.5789 12.75 16.5789C16.6816 16.5789 20.4336 18.4534 21.7441 21.9884C21.8954 22.3964 22.3439 22.6028 22.746 22.4492C23.148 22.2956 23.3512 21.8404 23.2 21.4323C21.5837 17.0727 17.077 15 12.75 15C8.42295 15 3.9163 17.0727 2.30005 21.4323C2.14876 21.8404 2.35202 22.2956 2.75405 22.4492C3.15607 22.6028 3.60461 22.3964 3.7559 21.9884Z" />
</svg>
