<svg width="33" height="32" viewBox="0 0 33 32" fill="#fff" xmlns="http://www.w3.org/2000/svg">
<g id="Frame 915">
<g id="Vector">
<path fill-rule="evenodd" clip-rule="evenodd" d="M26 26V16C26 10.4772 21.5228 6 16 6C10.4772 6 6 10.4772 6 16C6 21.5228 10.4772 26 16 26H26ZM16 4C9.37258 4 4 9.37258 4 16C4 22.6274 9.37258 28 16 28H28V16C28 9.37258 22.6274 4 16 4Z"/>
<path d="M20.9167 12C21.515 12 22 12.4975 22 13.1111C22 13.4179 21.8788 13.6957 21.6828 13.8967L15.0994 20.6745C14.9034 20.8756 14.6325 21 14.3333 21C14.029 21 13.754 20.8713 13.5573 20.6641L10.3275 17.3515C10.1255 17.1497 10 16.8677 10 16.5556C10 15.9419 10.485 15.4444 11.0833 15.4444C11.3825 15.4444 11.6534 15.5687 11.8494 15.7698L14.3334 18.3175L20.1457 12.3305C20.3422 12.1264 20.615 12 20.9167 12Z" />
</g>
</g>
</svg>
