<svg xmlns="http://www.w3.org/2000/svg" width="24" height="24" viewBox="0 0 24 24" fill="none">
  <path d="M18.9697 7.71966C19.1054 7.58394 19.2929 7.5 19.5 7.5C19.9142 7.5 20.25 7.83579 20.25 8.25C20.25 8.46067 20.1631 8.65105 20.0233 8.78729L12.5373 16.2733C12.4011 16.4131 12.2107 16.5 12 16.5C11.7893 16.5 11.5989 16.4131 11.4627 16.2733L3.97672 8.78728C3.83686 8.65105 3.75 8.46067 3.75 8.25C3.75 7.83579 4.08579 7.5 4.5 7.5C4.7071 7.5 4.8946 7.58394 5.03032 7.71966L12 14.6892L18.9697 7.71966Z" fill="#666666"/>
</svg>