<svg xmlns="http://www.w3.org/2000/svg" width="64" height="64" viewBox="0 0 64 64" fill="none">
  <defs>
    <mask id="cutDots" maskUnits="userSpaceOnUse" x="0" y="0" width="64" height="64">
      <rect x="0" y="0" width="64" height="64" fill="white" />
      <!-- Slightly larger than the dots to fully remove the originals -->
      <circle cx="21.231" cy="32.5" r="3.2" fill="black" />
      <circle cx="32.004" cy="32.5" r="3.2" fill="black" />
      <circle cx="42.779" cy="32.5" r="3.2" fill="black" />
    </mask>
  </defs>
  <g>
    <path mask="url(#cutDots)"
      d="M32.2119 7.5C45.8596 7.5 56.9235 18.5643 56.9238 32.2119C56.9238 45.8597 45.8597 56.9238 32.2119 56.9238C27.834 56.9237 23.7197 55.7807 20.1514 53.7812L9.54785 56.8018C9.02449 56.9507 8.46098 56.8047 8.07617 56.4199C7.69177 56.0352 7.54558 55.4723 7.69434 54.9492L10.7021 44.3799C8.6655 40.7869 7.5 36.6336 7.5 32.2119C7.50029 18.5645 18.5645 7.50029 32.2119 7.5ZM32.2119 10.5C20.2214 10.5003 10.5003 20.2214 10.5 32.2119C10.5 36.3083 11.6342 40.1361 13.6035 43.4033C13.818 43.7592 13.8753 44.1882 13.7617 44.5879L11.3154 53.1787L19.9385 50.7236L20.0889 50.6885C20.4412 50.6263 20.8068 50.6923 21.1172 50.877C24.3633 52.8109 28.1557 53.9237 32.2119 53.9238C44.2029 53.9238 53.9238 44.2029 53.9238 32.2119C53.9235 20.2212 44.2027 10.5 32.2119 10.5ZM21.2314 29.6113C22.8267 29.6113 24.1201 30.9047 24.1201 32.5C24.12 34.0952 22.8267 35.3887 21.2314 35.3887C19.6363 35.3886 18.3429 34.0952 18.3428 32.5C18.3428 30.9047 19.6362 29.6114 21.2314 29.6113ZM32.0039 29.6113C33.5991 29.6114 34.8926 30.9048 34.8926 32.5C34.8925 34.0951 33.5991 35.3886 32.0039 35.3887C30.4087 35.3887 29.1154 34.0952 29.1152 32.5C29.1152 30.9047 30.4086 29.6113 32.0039 29.6113ZM42.7793 29.6113C44.3746 29.6113 45.668 30.9047 45.668 32.5C45.6678 34.0952 44.3745 35.3887 42.7793 35.3887C41.1841 35.3886 39.8907 34.0952 39.8906 32.5C39.8906 30.9047 41.184 29.6114 42.7793 29.6113Z"
      fill="white" />
    <!-- Animated dots -->
    <g fill="white">
      <circle cx="21.231" cy="32.5" r="2.9">
        <animate attributeName="cy" dur="1.8s" repeatCount="indefinite" values="32.5;24.5;32.5;32.5"
          keyTimes="0;0.65;0.857;1" calcMode="spline" keySplines="0.33 0 0.67 1;0.33 0 0.67 1;0 0 1 1" />
      </circle>
      <circle cx="32.004" cy="32.5" r="2.9">
        <animate attributeName="cy" begin="0.4s" dur="1.8s" repeatCount="indefinite" values="32.5;24.5;32.5;32.5"
          keyTimes="0;0.65;0.857;1" calcMode="spline" keySplines="0.33 0 0.67 1;0.33 0 0.67 1;0 0 1 1" />
      </circle>
      <circle cx="42.779" cy="32.5" r="2.9">
        <animate attributeName="cy" begin="0.8s" dur="1.8s" repeatCount="indefinite" values="32.5;24.5;32.5;32.5"
          keyTimes="0;0.65;0.857;1" calcMode="spline" keySplines="0.33 0 0.67 1;0.33 0 0.67 1;0 0 1 1" />
      </circle>
    </g>
  </g>
</svg>