<svg xmlns="http://www.w3.org/2000/svg" width="24" height="24" viewBox="0 0 24 24" fill="none">
  <path d="M11.25 15.2007C10.8016 15.46 10.5 15.9448 10.5 16.5C10.5 17.3284 11.1716 18 12 18C12.8284 18 13.5 17.3284 13.5 16.5C13.5 15.9448 13.1984 15.46 12.75 15.2007V14.25C12.75 13.8358 12.4142 13.5 12 13.5C11.5858 13.5 11.25 13.8358 11.25 14.25V15.2007Z" fill="#191919"/>
  <path fill-rule="evenodd" clip-rule="evenodd" d="M11.25 2.25H12.75C14.0868 2.25 15.0872 2.62576 15.7269 3.39574C16.3429 4.13727 16.5 5.10097 16.5 6V9.75H18C18.8284 9.75 19.5 10.4216 19.5 11.25V20.25C19.5 21.0784 18.8284 21.75 18 21.75H6C5.17157 21.75 4.5 21.0784 4.5 20.25V11.25C4.5 10.4216 5.17157 9.75 6 9.75H7.5V6C7.5 5.10097 7.65706 4.13727 8.27311 3.39574C8.91278 2.62576 9.91322 2.25 11.25 2.25ZM11.25 3.75C10.1868 3.75 9.68722 4.04091 9.42689 4.35426C9.14294 4.69606 9 5.23236 9 6V9.75H15V6C15 5.23236 14.8571 4.69606 14.5731 4.35426C14.3128 4.04091 13.8132 3.75 12.75 3.75H11.25ZM18 11.25H6V20.25H18V11.25Z" fill="#191919"/>
</svg>