<svg xmlns="http://www.w3.org/2000/svg" width="24" height="24" viewBox="0 0 24 24" fill="none">
  <path d="M6 6.75C6.41421 6.75 6.75 6.41421 6.75 6C6.75 5.58579 6.41421 5.25 6 5.25C5.58579 5.25 5.25 5.58579 5.25 6C5.25 6.41421 5.58579 6.75 6 6.75Z" fill="#191919"/>
  <path d="M6.75 12C6.75 12.4142 6.41421 12.75 6 12.75C5.58579 12.75 5.25 12.4142 5.25 12C5.25 11.5858 5.58579 11.25 6 11.25C6.41421 11.25 6.75 11.5858 6.75 12Z" fill="#191919"/>
  <path d="M6 18.75C6.41421 18.75 6.75 18.4142 6.75 18C6.75 17.5858 6.41421 17.25 6 17.25C5.58579 17.25 5.25 17.5858 5.25 18C5.25 18.4142 5.58579 18.75 6 18.75Z" fill="#191919"/>
  <path fill-rule="evenodd" clip-rule="evenodd" d="M2.25 8.25C2.25 8.52322 2.32305 8.77937 2.45067 9C2.32305 9.22063 2.25 9.47678 2.25 9.75V14.25C2.25 14.5232 2.32305 14.7794 2.45067 15C2.32305 15.2206 2.25 15.4768 2.25 15.75V20.25C2.25 21.0784 2.92157 21.75 3.75 21.75H20.25C21.0784 21.75 21.75 21.0784 21.75 20.25V15.75C21.75 15.4768 21.677 15.2206 21.5493 15C21.677 14.7794 21.75 14.5232 21.75 14.25V9.75C21.75 9.47678 21.677 9.22063 21.5493 9C21.677 8.77937 21.75 8.52322 21.75 8.25V3.75C21.75 2.92157 21.0784 2.25 20.25 2.25H3.75C2.92157 2.25 2.25 2.92157 2.25 3.75V8.25ZM20.25 3.75H3.75L3.75 8.25H20.25V3.75ZM3.75 9.75H20.25V14.25H3.75V9.75ZM20.25 15.75H3.75V20.25H20.25V15.75Z" fill="#191919"/>
</svg>