<svg width="24" height="24" viewBox="0 0 24 24" fill="none" xmlns="http://www.w3.org/2000/svg">
<path d="M15.3175 8.91016L16.9197 11.9613L18.5618 8.91016H21.0447L18.5163 13.2738L21.1129 17.6374H18.6413L16.9197 14.6204L15.2266 17.6374H12.7266L15.3175 13.2738L12.8175 8.91016H15.3175Z" fill="#0E5FE3"/>
<path d="M7.21023 17.7955C6.4072 17.7955 5.69129 17.6477 5.0625 17.3523C4.4375 17.0568 3.94129 16.6496 3.57386 16.1307C3.20644 15.6117 3.01515 15.017 3 14.3466H5.38636C5.41288 14.7973 5.60227 15.1629 5.95455 15.4432C6.30682 15.7235 6.72538 15.8636 7.21023 15.8636C7.59659 15.8636 7.9375 15.7784 8.23295 15.608C8.5322 15.4337 8.76515 15.1932 8.93182 14.8864C9.10227 14.5758 9.1875 14.2197 9.1875 13.8182C9.1875 13.4091 9.10038 13.0492 8.92614 12.7386C8.75568 12.428 8.51894 12.1856 8.21591 12.0114C7.91288 11.8371 7.56629 11.7481 7.17614 11.7443C6.83523 11.7443 6.50379 11.8144 6.18182 11.9545C5.86364 12.0947 5.61553 12.286 5.4375 12.5284L3.25 12.1364L3.80114 6H10.9148V8.01136H5.82955L5.52841 10.9261H5.59659C5.80114 10.6383 6.10985 10.3996 6.52273 10.2102C6.93561 10.0208 7.39773 9.92614 7.90909 9.92614C8.60985 9.92614 9.23485 10.0909 9.78409 10.4205C10.3333 10.75 10.767 11.2027 11.0852 11.7784C11.4034 12.3504 11.5606 13.0095 11.5568 13.7557C11.5606 14.5398 11.3788 15.2367 11.0114 15.8466C10.6477 16.4527 10.1383 16.9299 9.48295 17.2784C8.83144 17.6231 8.07386 17.7955 7.21023 17.7955Z" fill="#0E5FE3"/>
</svg>
