<svg width="12" height="12" viewBox="0 0 12 12" fill="none" xmlns="http://www.w3.org/2000/svg">
<path d="M9.48484 5.73483C9.5527 5.66697 9.64645 5.625 9.75 5.625C9.95711 5.625 10.125 5.79289 10.125 6C10.125 6.10534 10.0816 6.20053 10.0116 6.26865L6.26865 10.0116C6.20053 10.0816 6.10534 10.125 6 10.125C5.89466 10.125 5.79947 10.0816 5.73135 10.0116L1.98836 6.26864C1.91843 6.20052 1.875 6.10533 1.875 6C1.875 5.79289 2.04289 5.625 2.25 5.625C2.35355 5.625 2.4473 5.66697 2.51516 5.73483L5.625 8.84462L5.625 2.25C5.625 2.04289 5.79289 1.875 6 1.875C6.20711 1.875 6.375 2.04289 6.375 2.25L6.375 8.84462L9.48484 5.73483Z" fill="#0E5FE3"/>
</svg>
