<svg width="24" height="24" viewBox="0 0 24 24" fill="none" xmlns="http://www.w3.org/2000/svg">
<path fill-rule="evenodd" clip-rule="evenodd" d="M2.93773 14.8109H3.68595L3.5531 15.32C3.34759 16.1076 3.80274 16.9172 4.56973 17.1282L18.4571 20.9493C19.2241 21.1604 20.0125 20.693 20.218 19.9054L22.4507 11.349C22.6562 10.5614 22.201 9.75189 21.434 9.54086L18.7528 8.80311V4.47636C18.7528 3.66099 18.1091 3 17.315 3H2.93773C2.14369 3 1.5 3.66099 1.5 4.47636V13.3346C1.5 14.1499 2.14369 14.8109 2.93773 14.8109ZM17.315 4.47636H2.93773L2.93773 13.3346H4.07119L5.78577 6.7637C5.99128 5.97611 6.77964 5.50871 7.54662 5.71975L17.315 8.40752V4.47636ZM21.0618 10.9669L7.17451 7.14581L4.94173 15.7021L18.8291 19.5232L21.0618 10.9669Z" fill="#0E5FE3"/>
</svg>
