<svg xmlns="http://www.w3.org/2000/svg" width="25" height="24" viewBox="0 0 25 24" fill="none">
  <path fill-rule="evenodd" clip-rule="evenodd" d="M14.7681 13.6748L15.1493 13.4319C16.6159 12.4976 17.5834 10.8613 17.5834 9C17.5834 6.1005 15.2329 3.75 12.3334 3.75C9.43388 3.75 7.08337 6.1005 7.08337 9C7.08337 10.8611 8.05067 12.4973 9.51704 13.4317L9.89815 13.6745L12.3332 19.1533L14.7681 13.6748ZM15.9553 14.697L13.0281 21.2831C12.9164 21.557 12.6474 21.75 12.3334 21.75C12.026 21.75 11.7618 21.5651 11.646 21.3004L8.71097 14.6967C6.83061 13.4985 5.58337 11.3949 5.58337 9C5.58337 5.27208 8.60545 2.25 12.3334 2.25C16.0613 2.25 19.0834 5.27208 19.0834 9C19.0834 11.3951 17.8359 13.4989 15.9553 14.697ZM16.0834 9C16.0834 11.0711 14.4044 12.75 12.3334 12.75C10.2623 12.75 8.58337 11.0711 8.58337 9C8.58337 6.92893 10.2623 5.25 12.3334 5.25C14.4044 5.25 16.0834 6.92893 16.0834 9ZM14.5834 9C14.5834 10.2426 13.576 11.25 12.3334 11.25C11.0907 11.25 10.0834 10.2426 10.0834 9C10.0834 7.75736 11.0907 6.75 12.3334 6.75C13.576 6.75 14.5834 7.75736 14.5834 9Z" fill="#0E5FE3"/>
</svg>