<svg width="24" height="24" viewBox="0 0 24 24" fill="none" xmlns="http://www.w3.org/2000/svg">
<path fill-rule="evenodd" clip-rule="evenodd" d="M2.69132 2.45774C2.88753 2.26779 3.17774 2.20147 3.44098 2.28641L6.37121 3.23204C6.67034 3.32857 6.87211 3.59959 6.87211 3.90486V6.44796L10.5163 9.97601C10.5173 9.97041 10.5189 9.9597 10.5209 9.94161C10.5204 9.93568 10.5185 9.90096 10.5049 9.81758C10.486 9.7017 10.4542 9.54499 10.4062 9.30944C10.3304 8.93712 10.2907 8.55277 10.2907 8.16016C10.2907 4.89608 13.0239 2.25002 16.3954 2.25002C17.5102 2.25002 18.5573 2.53998 19.4582 3.04672C19.6548 3.15732 19.7872 3.35004 19.8166 3.56834C19.846 3.78665 19.769 4.00578 19.6082 4.16145L17.0417 6.64618C16.8397 6.8417 16.7198 6.95857 16.6379 7.05196C16.5879 7.10896 16.5709 7.1368 16.5667 7.14457C16.5521 7.19015 16.5521 7.23893 16.5667 7.28451C16.5709 7.29229 16.5879 7.32013 16.6379 7.37712C16.7198 7.47051 16.8397 7.58738 17.0417 7.7829L17.2734 8.00725C17.4754 8.20277 17.5961 8.31886 17.6925 8.39815C17.7514 8.44654 17.7802 8.46301 17.7882 8.4671C17.8353 8.48122 17.8857 8.48122 17.9327 8.4671C17.9408 8.463 17.9695 8.44653 18.0284 8.39815C18.1249 8.31886 18.2456 8.20277 18.4475 8.00726L20.8483 5.683C21.0215 5.51526 21.2699 5.44249 21.5102 5.48909C21.7504 5.53569 21.9507 5.69549 22.0438 5.9149C22.3381 6.60809 22.5 7.36671 22.5 8.16016C22.5 11.0373 20.3764 13.4343 17.5639 13.9622L20.8203 17.1148C21.9155 18.1751 21.9156 19.8943 20.8203 20.9547C19.7251 22.015 17.9493 22.015 16.8541 20.9547L12.0001 16.2553L7.14592 20.9547C6.05068 22.0151 4.27494 22.0151 3.1797 20.9547C2.08446 19.8944 2.08445 18.1752 3.1797 17.1149L9.4989 10.997L5.83612 7.45095H3.20932C2.89401 7.45095 2.61407 7.25561 2.51436 6.966L1.53761 4.12913C1.44987 3.87429 1.51838 3.59332 1.71458 3.40337L2.69132 2.45774ZM5.40699 6.03251V4.41603L3.40718 3.77067L3.07071 4.09641L3.73732 6.03251H5.40699ZM11.054 11.4974L11.0529 11.4985L11.0518 11.4996L4.21569 18.1179C3.69261 18.6243 3.69261 19.4453 4.21569 19.9518C4.73877 20.4582 5.58685 20.4582 6.10993 19.9518L13.1005 13.1839C13.1184 13.1666 13.1364 13.1491 13.1544 13.1316C13.1906 13.0964 13.227 13.061 13.2637 13.0259L13.3766 12.9167C13.4703 12.8259 13.5714 12.7487 13.6776 12.6843C13.7126 12.6619 13.7481 12.6412 13.7842 12.6225C13.8727 12.5766 13.9727 12.53 14.0921 12.4949C14.2114 12.4597 14.3213 12.4445 14.4212 12.4348C14.4384 12.4332 14.4556 12.4319 14.4727 12.431C14.7086 12.4112 14.9447 12.4339 15.164 12.4921C15.2711 12.5206 15.3799 12.5455 15.4901 12.5666L15.4917 12.5669C15.5118 12.5707 15.5318 12.5744 15.5519 12.578C15.6833 12.6013 15.8167 12.6193 15.9519 12.6317C16.0977 12.645 16.2456 12.6519 16.3954 12.6519C18.9577 12.6519 21.0349 10.6409 21.0349 8.16016C21.0349 7.95282 21.0204 7.74895 20.9924 7.5494L19.4654 9.02778C19.2876 9.19996 19.1243 9.35809 18.9766 9.47947C18.8174 9.61034 18.6288 9.7396 18.3887 9.81513C18.0454 9.92312 17.6756 9.92312 17.3323 9.81513C17.0922 9.7396 16.9036 9.61034 16.7444 9.47947C16.5967 9.35809 16.4334 9.19997 16.2555 9.02779L15.9875 8.76833C15.8097 8.59618 15.6464 8.43808 15.521 8.2951C15.3858 8.14094 15.2523 7.95837 15.1743 7.72591C15.0627 7.39355 15.0627 7.03553 15.1743 6.70317C15.2523 6.47071 15.3858 6.28814 15.521 6.13398C15.6464 5.991 15.8097 5.83288 15.9876 5.66072L17.8221 3.88464C17.373 3.7443 16.8937 3.66845 16.3954 3.66845C13.833 3.66845 11.7558 5.67946 11.7558 8.16016C11.7558 8.46014 11.7861 8.75258 11.8436 9.03498L11.8464 9.04877C11.8909 9.26685 11.9282 9.45027 11.952 9.59601C11.9747 9.73473 11.9972 9.90442 11.98 10.0714C11.97 10.1681 11.9543 10.2745 11.918 10.3901C11.8817 10.5056 11.8335 10.6025 11.7862 10.6882C11.6645 10.9083 11.4595 11.1059 11.2603 11.2978C11.2422 11.3153 11.2242 11.3327 11.2063 11.35L11.054 11.4974ZM13.0361 15.2523L17.8901 19.9517C18.4132 20.4581 19.2612 20.4581 19.7843 19.9517C20.3074 19.4453 20.3074 18.6242 19.7843 18.1178L15.5447 14.0133C15.4315 13.998 15.0411 13.855 14.93 13.8338M16.5655 7.28217L16.5661 7.28349L16.5655 7.28217Z" fill="#0E5FE3"/>
</svg>
